<?xml version="1.0" encoding="utf-8"?>
<!-- Generator: Adobe Illustrator 26.4.1, SVG Export Plug-In . SVG Version: 6.00 Build 0)  -->
<svg version="1.1" baseProfile="tiny" id="Layer_1" xmlns="http://www.w3.org/2000/svg" xmlns:xlink="http://www.w3.org/1999/xlink"
	 x="0px" y="0px" viewBox="0 0 36 35.8" overflow="visible" xml:space="preserve">
<g>
	<path fill="#138079" d="M34.38,7.69H1.62C0.72,7.69,0,6.96,0,6.07V1.62C0,0.72,0.72,0,1.62,0h32.76C35.28,0,36,0.72,36,1.62v4.45
		C36,6.96,35.28,7.69,34.38,7.69z"/>
	<path fill="#138079" d="M34.38,35.8H1.62C0.72,35.8,0,35.07,0,34.18V13.75c0-0.89,0.72-1.62,1.62-1.62h32.76
		c0.89,0,1.62,0.72,1.62,1.62v20.43C36,35.07,35.28,35.8,34.38,35.8z"/>
</g>
</svg>
